<svg width="22px" height="23px" viewBox="0 0 22 23" version="1.1" xmlns="http://www.w3.org/2000/svg" xmlns:xlink="http://www.w3.org/1999/xlink">
    <!-- Generator: Sketch 43.2 (39069) - http://www.bohemiancoding.com/sketch -->
    <desc>Created with Sketch.</desc>
    <defs>
        <path d="M0.534147344,21.5875714 C-0.0660049477,20.9823026 -0.0663838135,20.0013503 0.534143481,19.3957034 L19.2730026,0.497091721 C19.8731528,-0.108174836 20.8460582,-0.108306174 21.4463425,0.497095616 L21.4463425,0.497095616 C22.0464948,1.10236432 22.0468736,2.0833167 21.4463463,2.68896361 L2.70748718,21.5875752 C2.10733703,22.1928418 1.13443159,22.1929731 0.534147344,21.5875714" id="path-1"></path>
        <path d="M21.4463425,21.5875714 C20.8461902,22.1928401 19.8735299,22.1932222 19.2730026,21.5875752 L0.534143481,2.68896361 C-0.066006677,2.08369705 -0.0661369047,1.10249741 0.534147344,0.497095616 L0.534147344,0.497095616 C1.13429964,-0.108173092 2.10695989,-0.108555188 2.70748718,0.497091721 L21.4463463,19.3957034 C22.0464965,20.0009699 22.0466267,20.9821696 21.4463425,21.5875714" id="path-2"></path>
    </defs>
    <g id="Page-2" stroke="none" stroke-width="1" fill="none" fill-rule="evenodd">
        <g id="Artboard" transform="translate(-1.000000, -1.000000)">
            <g id="Group" transform="translate(1.000000, 1.000000)">
                <g id="Rectangle-2">
                    <use fill="#FFFFFF" fill-rule="evenodd" xlink:href="#path-1"></use>
                    <path d="M0.534147344,21.5875714 C1.13438602,22.1929272 2.10729145,22.1928878 2.70748718,21.5875752 L21.4463463,2.68896361 C22.0467434,2.08344806 22.0466251,1.10249572 21.4463425,0.497095616 C20.8461038,-0.108260211 19.8731984,-0.108220803 19.2730026,0.497091721 L0.534143481,19.3957034 C-0.0662535612,20.0012189 -0.0661352317,20.9821712 0.534147344,21.5875714 Z"></path>
                </g>
                <g id="Rectangle-2">
                    <use fill="#FFFFFF" fill-rule="evenodd" xlink:href="#path-2"></use>
                    <path d="M21.4463425,21.5875714 C20.8460599,22.1929715 19.8733997,22.1930908 19.2730026,21.5875752 L0.534143481,2.68896361 C-0.0660522548,2.08365109 -0.0660913305,1.10245144 0.534147344,0.497095616 C1.13442992,-0.108304487 2.10709014,-0.108423825 2.70748718,0.497091721 L21.4463463,19.3957034 C22.0465421,20.0010159 22.0465812,20.9822155 21.4463425,21.5875714 Z M21.4463425,21.5875714 C22.0465812,20.9822155 22.0465421,20.0010159 21.4463463,19.3957034 L2.70748718,0.497091721 C2.10709014,-0.108423825 1.13442992,-0.108304487 0.534147344,0.497095616 C-0.0660913305,1.10245144 -0.0660522548,2.08365109 0.534143481,2.68896361 L19.2730026,21.5875752 C19.8733997,22.1930908 20.8460599,22.1929715 21.4463425,21.5875714 Z"></path>
                </g>
            </g>
        </g>
    </g>
</svg>
